<?xml version="1.0" encoding="UTF-8"?>
<svg id="Layer_2" data-name="Layer 2" xmlns="http://www.w3.org/2000/svg" viewBox="0 0 839.78 207.3">
  <defs>
    <style>
      .cls-1 {
        fill: #007ea7;
      }
    </style>
  </defs>
  <g id="Layer_1-2" data-name="Layer 1">
    <g>
      <path class="cls-1" d="M94.59,95.34l79.1,1.09,20.96,63.29-78.71-.6-1.63.04,15.92,48.08-96.01.05h0c-10.37-31.31,12.98-63.59,45.97-63.52l92.57.18-10.54-31.83-159.74-.67h0c-10.37-31.31,12.98-63.59,45.97-63.52l92.57.18-10.9-32.9-106.97.51L17.95,0l124,.6,20.73,62.58-78.48.12"/>
      <g>
        <path class="cls-1" d="M245.94,36.55v101.8h-17.83V36.55h17.83ZM283.82,96.72h-54.59v-16.02h54.59v16.02ZM291.07,52.99h-61.56v-16.43h61.56v16.43Z"/>
        <path class="cls-1" d="M289.67,103.82c0-7.15,1.58-13.44,4.73-18.87,3.16-5.43,7.52-9.68,13.09-12.74s11.88-4.6,18.94-4.6,13.49,1.53,19.01,4.6c5.52,3.06,9.86,7.31,13.02,12.74,3.16,5.43,4.74,11.72,4.74,18.87s-1.58,13.44-4.74,18.87c-3.16,5.43-7.5,9.68-13.02,12.74-5.53,3.06-11.86,4.6-19.01,4.6s-13.37-1.53-18.94-4.6c-5.57-3.06-9.94-7.31-13.09-12.74-3.16-5.43-4.73-11.72-4.73-18.87ZM306.66,103.82c0,4.18.86,7.85,2.58,11,1.72,3.16,4.04,5.62,6.96,7.38,2.92,1.77,6.34,2.65,10.24,2.65s7.33-.88,10.31-2.65c2.97-1.76,5.29-4.22,6.96-7.38,1.67-3.16,2.51-6.82,2.51-11s-.84-7.96-2.51-11.07c-1.67-3.11-3.99-5.55-6.96-7.31-2.97-1.76-6.41-2.65-10.31-2.65s-7.31.88-10.24,2.65c-2.92,1.76-5.25,4.2-6.96,7.31-1.72,3.11-2.58,6.8-2.58,11.07Z"/>
        <path class="cls-1" d="M414.32,69.28v15.74h-6.27c-6.22,0-11.1,1.65-14.62,4.94-3.53,3.3-5.29,8.29-5.29,14.97v33.42h-16.99v-68.66h16.02l1.39,14.21h-1.67c.93-4.55,3.11-8.26,6.55-11.14,3.43-2.88,7.89-4.32,13.37-4.32,1.21,0,2.41.05,3.62.14,1.21.09,2.51.33,3.9.7Z"/>
        <path class="cls-1" d="M437.3,138.36h-16.99v-68.8h15.6l2.09,12.26-1.95-1.67c1.39-3.34,3.94-6.29,7.66-8.84,3.71-2.55,8.36-3.83,13.93-3.83,6.03,0,10.98,1.58,14.83,4.73,3.85,3.16,6.52,7.34,8.01,12.53h-2.79c1.02-5.2,3.64-9.38,7.87-12.53,4.22-3.16,9.35-4.73,15.39-4.73,8.36,0,14.76,2.35,19.22,7.03,4.46,4.69,6.68,10.98,6.68,18.87v44.98h-16.85v-40.53c0-4.92-1.23-8.66-3.69-11.21-2.46-2.55-5.73-3.83-9.82-3.83-2.6,0-4.99.6-7.17,1.81-2.18,1.21-3.92,3.02-5.22,5.43-1.3,2.42-1.95,5.52-1.95,9.33v38.99h-16.99v-40.67c0-4.83-1.21-8.5-3.62-11-2.42-2.51-5.62-3.76-9.61-3.76-2.69,0-5.15.58-7.38,1.74-2.23,1.16-3.99,2.97-5.29,5.43-1.3,2.46-1.95,5.55-1.95,9.26v38.99Z"/>
        <path class="cls-1" d="M591.33,69.56h15.32v68.8h-15.74l-1.11-10.72c-2.14,3.53-5.25,6.5-9.33,8.91-4.09,2.41-8.91,3.62-14.48,3.62-6.68,0-12.44-1.6-17.27-4.8-4.83-3.2-8.5-7.59-11-13.16-2.51-5.57-3.76-11.93-3.76-19.08s1.35-13.51,4.04-18.8c2.69-5.29,6.48-9.42,11.35-12.39,4.87-2.97,10.51-4.46,16.92-4.46,5.1,0,9.86,1.09,14.27,3.27,4.41,2.18,7.68,5.32,9.82,9.4l.98-10.58ZM589.51,103.96c0-4.18-.79-7.84-2.37-11-1.58-3.16-3.83-5.62-6.75-7.38-2.92-1.76-6.34-2.65-10.24-2.65s-7.31.91-10.24,2.72c-2.92,1.81-5.15,4.3-6.68,7.45-1.53,3.16-2.3,6.78-2.3,10.86s.77,7.71,2.3,10.86c1.53,3.16,3.74,5.64,6.62,7.45,2.88,1.81,6.27,2.72,10.17,2.72s7.43-.88,10.31-2.65c2.88-1.76,5.13-4.25,6.75-7.45,1.62-3.2,2.44-6.85,2.44-10.93Z"/>
        <path class="cls-1" d="M635.89,138.36h-16.85V34.74h16.85v103.61Z"/>
        <path class="cls-1" d="M656.5,55.77c-2.88,0-5.32-1-7.31-2.99-2-2-2.99-4.43-2.99-7.31s1-5.29,2.99-7.24c2-1.95,4.43-2.92,7.31-2.92s5.31.97,7.31,2.92c2,1.95,2.99,4.37,2.99,7.24s-1,5.32-2.99,7.31c-2,2-4.43,2.99-7.31,2.99ZM648.15,138.36v-68.8h16.99v68.8h-16.99Z"/>
        <path class="cls-1" d="M670.29,69.56h56.54v14.07h-56.54v-14.07ZM700.23,138.36h-16.71V48.11h16.71v90.24ZM731.85,69.56l22.42,63.51-9.19,17.41-31.34-80.91h18.1ZM715.55,170.25v-14.07h10.17c2.32,0,4.32-.26,5.99-.77,1.67-.51,3.16-1.46,4.46-2.85,1.3-1.39,2.46-3.44,3.48-6.13l28.41-76.87h17.55l-33.56,84.12c-2.42,5.94-5.48,10.45-9.19,13.51-3.71,3.06-8.59,4.6-14.62,4.6-2.32,0-4.53-.12-6.62-.35-2.09-.23-4.11-.63-6.06-1.18Z"/>
        <path class="cls-1" d="M782.96,117.47h16.16c.09,2.97,1.21,5.34,3.34,7.1,2.13,1.76,5.1,2.65,8.91,2.65,4.08,0,7.17-.74,9.26-2.23,2.09-1.48,3.13-3.48,3.13-5.99,0-1.67-.56-3.15-1.67-4.46-1.11-1.3-3.2-2.27-6.27-2.92l-12.39-2.92c-6.22-1.39-10.84-3.64-13.86-6.75-3.02-3.11-4.53-7.4-4.53-12.88,0-4.46,1.18-8.31,3.55-11.56,2.37-3.25,5.59-5.73,9.68-7.45,4.08-1.72,8.77-2.58,14.07-2.58s9.61.93,13.51,2.79c3.9,1.86,6.94,4.46,9.12,7.8,2.18,3.34,3.32,7.24,3.41,11.7h-16.15c0-2.97-.93-5.31-2.79-7.03-1.86-1.72-4.46-2.58-7.8-2.58s-5.94.74-7.8,2.23c-1.86,1.49-2.79,3.48-2.79,5.99,0,3.81,2.97,6.41,8.91,7.8l12.39,2.92c5.76,1.3,10.1,3.39,13.02,6.27,2.92,2.88,4.39,6.96,4.39,12.26,0,4.64-1.21,8.66-3.62,12.05-2.42,3.39-5.8,5.99-10.17,7.8-4.37,1.81-9.38,2.72-15.04,2.72-8.54,0-15.34-2.09-20.4-6.27-5.06-4.18-7.59-9.65-7.59-16.43Z"/>
      </g>
    </g>
  </g>
</svg>