<?xml version="1.0" encoding="UTF-8"?>
<svg id="Layer_1" xmlns="http://www.w3.org/2000/svg" version="1.1" viewBox="0 0 1920 1080">
  <!-- Generator: Adobe Illustrator 29.8.1, SVG Export Plug-In . SVG Version: 2.1.1 Build 2)  -->
  <defs>
    <style>
      .st0 {
        fill: #007ea7;
      }
    </style>
  </defs>
  <g>
    <path class="st0" d="M601.9,418.5l79.1,1.1,21,63.3-78.7-.6h-1.6s15.9,48.1,15.9,48.1h-96q0,0,0,0c-10.4-31.3,13-63.6,46-63.5l92.6.2-10.5-31.8-159.7-.7h0c-10.4-31.3,13-63.6,46-63.5l92.6.2-10.9-32.9-107,.5-5.2-15.7,124,.6,20.7,62.6h-78.5"/>
    <g>
      <path class="st0" d="M753.2,359.7v101.8h-17.8v-101.8h17.8ZM791.1,419.9h-54.6v-16h54.6v16ZM798.3,376.1h-61.6v-16.4h61.6v16.4Z"/>
      <path class="st0" d="M796.9,427c0-7.1,1.6-13.4,4.7-18.9,3.2-5.4,7.5-9.7,13.1-12.7s11.9-4.6,18.9-4.6,13.5,1.5,19,4.6c5.5,3.1,9.9,7.3,13,12.7,3.2,5.4,4.7,11.7,4.7,18.9s-1.6,13.4-4.7,18.9c-3.2,5.4-7.5,9.7-13,12.7-5.5,3.1-11.9,4.6-19,4.6s-13.4-1.5-18.9-4.6c-5.6-3.1-9.9-7.3-13.1-12.7-3.2-5.4-4.7-11.7-4.7-18.9ZM813.9,427c0,4.2.9,7.8,2.6,11,1.7,3.2,4,5.6,7,7.4,2.9,1.8,6.3,2.6,10.2,2.6s7.3-.9,10.3-2.6c3-1.8,5.3-4.2,7-7.4,1.7-3.2,2.5-6.8,2.5-11s-.8-8-2.5-11.1c-1.7-3.1-4-5.5-7-7.3-3-1.8-6.4-2.6-10.3-2.6s-7.3.9-10.2,2.6c-2.9,1.8-5.2,4.2-7,7.3-1.7,3.1-2.6,6.8-2.6,11.1Z"/>
      <path class="st0" d="M921.6,392.4v15.7h-6.3c-6.2,0-11.1,1.6-14.6,4.9-3.5,3.3-5.3,8.3-5.3,15v33.4h-17v-68.7h16l1.4,14.2h-1.7c.9-4.5,3.1-8.3,6.5-11.1,3.4-2.9,7.9-4.3,13.4-4.3s2.4,0,3.6.1c1.2,0,2.5.3,3.9.7Z"/>
      <path class="st0" d="M944.6,461.5h-17v-68.8h15.6l2.1,12.3-1.9-1.7c1.4-3.3,3.9-6.3,7.7-8.8,3.7-2.6,8.4-3.8,13.9-3.8s11,1.6,14.8,4.7c3.9,3.2,6.5,7.3,8,12.5h-2.8c1-5.2,3.6-9.4,7.9-12.5,4.2-3.2,9.4-4.7,15.4-4.7s14.8,2.3,19.2,7c4.5,4.7,6.7,11,6.7,18.9v45h-16.9v-40.5c0-4.9-1.2-8.7-3.7-11.2-2.5-2.6-5.7-3.8-9.8-3.8s-5,.6-7.2,1.8c-2.2,1.2-3.9,3-5.2,5.4-1.3,2.4-1.9,5.5-1.9,9.3v39h-17v-40.7c0-4.8-1.2-8.5-3.6-11-2.4-2.5-5.6-3.8-9.6-3.8s-5.2.6-7.4,1.7c-2.2,1.2-4,3-5.3,5.4-1.3,2.5-1.9,5.5-1.9,9.3v39Z"/>
      <path class="st0" d="M1098.6,392.7h15.3v68.8h-15.7l-1.1-10.7c-2.1,3.5-5.2,6.5-9.3,8.9-4.1,2.4-8.9,3.6-14.5,3.6s-12.4-1.6-17.3-4.8c-4.8-3.2-8.5-7.6-11-13.2-2.5-5.6-3.8-11.9-3.8-19.1s1.3-13.5,4-18.8c2.7-5.3,6.5-9.4,11.4-12.4,4.9-3,10.5-4.5,16.9-4.5s9.9,1.1,14.3,3.3c4.4,2.2,7.7,5.3,9.8,9.4l1-10.6ZM1096.8,427.1c0-4.2-.8-7.8-2.4-11-1.6-3.2-3.8-5.6-6.8-7.4-2.9-1.8-6.3-2.6-10.2-2.6s-7.3.9-10.2,2.7c-2.9,1.8-5.2,4.3-6.7,7.5-1.5,3.2-2.3,6.8-2.3,10.9s.8,7.7,2.3,10.9c1.5,3.2,3.7,5.6,6.6,7.5,2.9,1.8,6.3,2.7,10.2,2.7s7.4-.9,10.3-2.6c2.9-1.8,5.1-4.2,6.8-7.5,1.6-3.2,2.4-6.8,2.4-10.9Z"/>
      <path class="st0" d="M1143.2,461.5h-16.9v-103.6h16.9v103.6Z"/>
      <path class="st0" d="M1163.8,378.9c-2.9,0-5.3-1-7.3-3-2-2-3-4.4-3-7.3s1-5.3,3-7.2c2-1.9,4.4-2.9,7.3-2.9s5.3,1,7.3,2.9c2,1.9,3,4.4,3,7.2s-1,5.3-3,7.3c-2,2-4.4,3-7.3,3ZM1155.4,461.5v-68.8h17v68.8h-17Z"/>
      <path class="st0" d="M1177.6,392.7h56.5v14.1h-56.5v-14.1ZM1207.5,461.5h-16.7v-90.2h16.7v90.2ZM1239.1,392.7l22.4,63.5-9.2,17.4-31.3-80.9h18.1ZM1222.8,493.4v-14.1h10.2c2.3,0,4.3-.3,6-.8,1.7-.5,3.2-1.5,4.5-2.9,1.3-1.4,2.5-3.4,3.5-6.1l28.4-76.9h17.5l-33.6,84.1c-2.4,5.9-5.5,10.4-9.2,13.5-3.7,3.1-8.6,4.6-14.6,4.6s-4.5-.1-6.6-.3c-2.1-.2-4.1-.6-6.1-1.2Z"/>
      <path class="st0" d="M1290.2,440.6h16.2c0,3,1.2,5.3,3.3,7.1,2.1,1.8,5.1,2.6,8.9,2.6s7.2-.7,9.3-2.2c2.1-1.5,3.1-3.5,3.1-6s-.6-3.2-1.7-4.5c-1.1-1.3-3.2-2.3-6.3-2.9l-12.4-2.9c-6.2-1.4-10.8-3.6-13.9-6.8-3-3.1-4.5-7.4-4.5-12.9s1.2-8.3,3.6-11.6c2.4-3.2,5.6-5.7,9.7-7.5,4.1-1.7,8.8-2.6,14.1-2.6s9.6.9,13.5,2.8c3.9,1.9,6.9,4.5,9.1,7.8,2.2,3.3,3.3,7.2,3.4,11.7h-16.2c0-3-.9-5.3-2.8-7-1.9-1.7-4.5-2.6-7.8-2.6s-5.9.7-7.8,2.2c-1.9,1.5-2.8,3.5-2.8,6,0,3.8,3,6.4,8.9,7.8l12.4,2.9c5.8,1.3,10.1,3.4,13,6.3,2.9,2.9,4.4,7,4.4,12.3s-1.2,8.7-3.6,12c-2.4,3.4-5.8,6-10.2,7.8-4.4,1.8-9.4,2.7-15,2.7-8.5,0-15.3-2.1-20.4-6.3-5.1-4.2-7.6-9.7-7.6-16.4Z"/>
    </g>
  </g>
  <path class="st0" d="M933.4,680.3l79.1,1.1,21,63.3-78.7-.6h-1.6s15.9,48.1,15.9,48.1h-96q0,0,0,0c-10.4-31.3,13-63.6,46-63.5l92.6.2-10.5-31.8-159.7-.7h0c-10.4-31.3,13-63.6,46-63.5l92.6.2-10.9-32.9-107,.5-5.2-15.7,124,.6,20.7,62.6h-78.5"/>
</svg>